<svg id="IG_icon" data-name="IG icon" xmlns="http://www.w3.org/2000/svg" viewBox="0 0 30 30"><defs><style>.cls-1{fill:none;}.cls-2{fill:#fff;fill-rule:evenodd;}</style></defs><rect id="background" class="cls-1" width="30" height="30"/><g id="Dribbble-Light-Preview"><g id="icons"><path id="instagram-" class="cls-2" d="M8.8.18A8.27,8.27,0,0,0,.12,8a7.66,7.66,0,0,0,0,.83c-.07,1.5-.47,12.9.69,15.89a7.58,7.58,0,0,0,4.37,4.35,10.92,10.92,0,0,0,3.62.69c13.29.6,18.22.28,20.3-5a10.67,10.67,0,0,0,.69-3.62c.61-13.33-.1-16.21-2.41-18.53C25.54.76,23.38-.49,8.8.18M8.93,27.1a8.24,8.24,0,0,1-2.78-.51,4.9,4.9,0,0,1-2.83-2.83c-.89-2.27-.59-13-.51-14.8A6.35,6.35,0,0,1,4.44,4.49C5.93,3,7.86,2.27,21,2.86a6.4,6.4,0,0,1,4.49,1.63C27,6,27.71,7.92,27.11,21a8.14,8.14,0,0,1-.52,2.76c-1.35,3.46-4.45,3.95-17.66,3.34M21.14,7a1.79,1.79,0,1,0,1.79-1.78h0A1.79,1.79,0,0,0,21.14,7M7.29,15A7.67,7.67,0,1,0,15,7.34h0A7.65,7.65,0,0,0,7.29,15M10,15a5,5,0,1,1,5,5h0a5,5,0,0,1-5-5h0" transform="translate(0 0)"/></g></g></svg>